# xmcd
#
# Track frame offsets: 
#        150
#        11051
#        20875
#        31618
#        43755
#        56293
#        70228
#        81241
#        90535
#        104755
#        118500
#        127639
#        142082
#        156168
#        166650
#        178224
#        189777
#        203479
#        218509
#        228893
#        237787
#        249311
#        261170
#        272522
#        286130
#        299480
#        308728
#        319596
#        333492
#        342349
#
# Disc length: 4735 seconds
#
# Revision: 0
# Processed by: cddbd v1.5.2PL0 Copyright (c) Steve Scherf et al.
# Submitted via: ExactAudioCopyFreeDBPlugin 1.0
#
DISCID=9e127d1e
DTITLE=Various Artist - Starday Custom Series #500 - 675 [CD4]
DYEAR=2017
DGENRE=Country
TTITLE0=Curley Money and the Rolling Ramblers - Playing The Game
TTITLE1=Curley Money and the Rolling Ramblers - Why Must I Cry
TTITLE2=Luke Gordon - Goin' Crazy
TTITLE3=Luke Gordon - Married Life
TTITLE4=Monroe Johnson - I Hope Tomorrow Never Comes
TTITLE5=Monroe Johnson - What Am I Going To Do
TTITLE6=Lucky Wray - It's Music She Says
TTITLE7=Lucky Wray - Sick And Tired
TTITLE8=Alton Guyon and His Boogie Blues Boys - River Boat Blues
TTITLE9=Alton Guyon and His Boogie Blues Boys - Leave My Baby Alone
TTITLE10=Marty Licklider - Cold Hands, Warm Heart
TTITLE11=Marty Licklider - Our Anniversary Day
TTITLE12=Luke Gordon - Let This Kiss Bid You Goodbye
TTITLE13=Luke Gordon - Baby's Gone
TTITLE14=Oklahoma Melody Boys (Vocals Jearl Ritter) - Wasted
TTITLE15=Oklahoma Melody Boys (Vocals Jearl Ritter) - Your Heart And M
TTITLE15=ine
TTITLE16=Don Owens and the Circle 'O' Ranch Boys - Somethings You Cannot
TTITLE16=Change
TTITLE17=Don Owens and the Circle 'O' Ranch Boys - Adios Novia
TTITLE18=Jerry Hanson - Cry
TTITLE19=Jerry Hanson - I'm Doing All Right
TTITLE20=Jimmy Johnson - Woman Love
TTITLE21=Jimmy Johnson - All Dressed Up
TTITLE22=King Sterling - Slipping' Out - Stealing In
TTITLE23=King Sterling - Alone, Lonesome And Blue
TTITLE24=Hoyt Scoggins and the Saturday Nite Jamboree Boys - Why Did We 
TTITLE24=Fall In Love
TTITLE25=Hoyt Scoggins and the Saturday Nite Jamboree Boys - Tennessee R
TTITLE25=ock
TTITLE26=Ted Dixon - Your Lovin' Lies
TTITLE27=Ted Dixon - I'm Just Feeling Sorry For Myself
TTITLE28=Luke Gordon and His Lonesome Drifters - Big New Dance
TTITLE29=Luke Gordon and His Lonesome Drifters - Just Doin' What's Right
EXTD=
EXTT0=
EXTT1=
EXTT2=
EXTT3=
EXTT4=
EXTT5=
EXTT6=
EXTT7=
EXTT8=
EXTT9=
EXTT10=
EXTT11=
EXTT12=
EXTT13=
EXTT14=
EXTT15=
EXTT16=
EXTT17=
EXTT18=
EXTT19=
EXTT20=
EXTT21=
EXTT22=
EXTT23=
EXTT24=
EXTT25=
EXTT26=
EXTT27=
EXTT28=
EXTT29=
PLAYORDER=
